<svg xmlns="http://www.w3.org/2000/svg" viewBox="0 0 256 256" role="img" aria-label="iHeel icon">
<circle cx="128" cy="128" r="128" fill="#4A2E35"/>
<path d="M87.78,89.50 Q90.10,89.50 91.20,91.00 Q92.30,92.47 92.30,94.72 Q92.30,96.98 90.75,99.25 Q89.22,101.50 86.90,101.50 Q84.60,101.50 83.44,99.95 Q82.29,98.40 82.29,95.88 Q82.29,93.35 83.87,91.42 Q85.47,89.50 87.78,89.50 Z M90.87,141.75 L91.42,164.85 Q91.42,170.35 87.24,170.35 Q83.07,170.35 83.07,164.85 L83.62,141.75 L83.07,118.65 Q83.07,113.15 87.24,113.15 Q91.42,113.15 91.42,118.65 L90.87,141.75 Z M166.88,91.25 L166.33,121.30 L168.09,121.30 Q170.51,121.30 172.11,122.57 Q173.71,123.82 173.71,125.70 Q173.71,127.55 172.16,128.72 Q170.61,129.87 168.09,129.87 L166.33,129.87 L166.88,164.75 Q166.88,167.15 165.56,168.75 Q164.24,170.35 162.36,170.35 Q160.51,170.35 159.18,168.75 Q157.86,167.15 157.86,164.75 L158.41,129.55 Q142.24,129.20 135.03,129.20 Q127.83,129.20 119.58,129.55 Q119.58,147.35 119.86,155.60 Q120.13,163.85 120.13,165.50 Q120.13,167.15 118.81,168.75 Q117.49,170.35 115.61,170.35 Q113.76,170.35 112.43,168.75 Q111.11,167.15 111.11,165.50 Q111.11,163.85 111.21,158.90 Q111.66,147.58 111.66,129.75 L109.68,129.75 Q104.41,129.75 104.41,125.70 Q104.41,123.70 105.83,122.55 Q107.26,121.40 109.68,121.40 L111.66,121.40 L111.11,91.25 Q111.11,88.85 112.43,87.25 Q113.76,85.65 115.61,85.65 Q117.49,85.65 118.81,87.25 Q120.13,88.85 120.13,91.25 L119.58,121.73 Q130.58,121.95 140.48,121.95 Q150.38,121.95 158.41,121.62 L157.86,91.25 Q157.86,88.85 159.18,87.25 Q160.51,85.65 162.36,85.65 Q164.24,85.65 165.56,87.25 Q166.88,88.85 166.88,91.25 Z" fill="#F7F0E8"/>
</svg>