<svg xmlns="http://www.w3.org/2000/svg" viewBox="0 0 512 512" role="img" aria-label="iHeel"><circle cx="256" cy="256" r="256" fill="#4A2E35"/><g transform="translate(91,92) scale(0.88)"><path fill="#F7F0E8" d="m40.22,107.29h0c4.24,0,7.69,3.44,7.69,7.69v233.5c0,4.24-3.44,7.69-7.69,7.69h0c-20.32,0-36.82-16.5-36.82-36.82v-175.25c0-20.32,16.5-36.82,36.82-36.82Z"/><circle fill="#C9827A" cx="25.66" cy="57.91" r="25.66"/><path fill="#D6B999" d="m247.11,160.78s-77.19.19-77.19,55.64v13.69s27.63-30.65,77.19-30.65,77.15,30.6,77.19,30.64v-13.77c-.08-55.37-77.19-55.56-77.19-55.56Z"/><path fill="#F7F0E8" d="m361.12,16.21c-20.33,0-36.82,16.48-36.82,36.82v72.11s0,21.28-23.53,25.16c-1.81.3-3.65.37-5.48.23-3.64-.27-10.63-1.19-16.77-2.82-12.23-3.24-31.41-3.24-31.41-3.24,0,0-19.18,0-31.41,3.24-6.14,1.63-13.13,2.54-16.77,2.82-1.83.14-3.67.06-5.48-.23-23.53-3.79-23.53-25.18-23.53-25.19V53.03c0-20.33-16.48-36.82-36.82-36.82-4.25,0-7.69,3.44-7.69,7.69v324.59c0,4.25,3.44,7.69,7.69,7.69,20.33,0,36.82-16.48,36.82-36.82v-102.94c0-55.45,77.19-55.64,77.19-55.64,0,0,77.11.19,77.19,55.56v103.02c0,20.33,16.48,36.82,36.82,36.82,4.25,0,7.69-3.44,7.69-7.69V23.9c0-4.25-3.44-7.69-7.69-7.69Z"/></g></svg>
