<svg xmlns="http://www.w3.org/2000/svg" viewBox="0 0 250 140" role="img" aria-label="iHeel registered trademark"><path d="M11.69,27.50 Q13.80,27.50 14.80,28.86 Q15.80,30.20 15.80,32.25 Q15.80,34.30 14.39,36.36 Q13.00,38.41 10.89,38.41 Q8.80,38.41 7.75,37.00 Q6.70,35.59 6.70,33.30 Q6.70,31.00 8.14,29.25 Q9.59,27.50 11.69,27.50 Z M14.50,75.00 L15.00,96.00 Q15.00,101.00 11.20,101.00 Q7.41,101.00 7.41,96.00 L7.91,75.00 L7.41,54.00 Q7.41,49.00 11.20,49.00 Q15.00,49.00 15.00,54.00 L14.50,75.00 Z" fill="#D4C8C2"/><path d="M83.60,29.09 L83.10,56.41 L84.70,56.41 Q86.90,56.41 88.35,57.56 Q89.81,58.70 89.81,60.41 Q89.81,62.09 88.40,63.16 Q86.99,64.20 84.70,64.20 L83.10,64.20 L83.60,95.91 Q83.60,98.09 82.40,99.55 Q81.20,101.00 79.49,101.00 Q77.81,101.00 76.60,99.55 Q75.40,98.09 75.40,95.91 L75.90,63.91 Q61.20,63.59 54.65,63.59 Q48.10,63.59 40.60,63.91 Q40.60,80.09 40.85,87.59 Q41.10,95.09 41.10,96.59 Q41.10,98.09 39.90,99.55 Q38.70,101.00 36.99,101.00 Q35.31,101.00 34.10,99.55 Q32.90,98.09 32.90,96.59 Q32.90,95.09 32.99,90.59 Q33.40,80.30 33.40,64.09 L31.60,64.09 Q26.81,64.09 26.81,60.41 Q26.81,58.59 28.10,57.55 Q29.40,56.50 31.60,56.50 L33.40,56.50 L32.90,29.09 Q32.90,26.91 34.10,25.45 Q35.31,24.00 36.99,24.00 Q38.70,24.00 39.90,25.45 Q41.10,26.91 41.10,29.09 L40.60,56.80 Q50.60,57.00 59.60,57.00 Q68.60,57.00 75.90,56.70 L75.40,29.09 Q75.40,26.91 76.60,25.45 Q77.81,24.00 79.49,24.00 Q81.20,24.00 82.40,25.45 Q83.60,26.91 83.60,29.09 Z" fill="#F7F0E8"/><path d="M121.25,73.09 Q128.00,73.09 132.04,70.80 Q136.11,68.50 136.11,64.61 Q136.11,60.70 133.45,57.86 Q130.79,55.00 125.90,55.00 Q119.29,55.00 114.79,59.95 Q110.29,64.91 109.00,71.50 Q114.50,73.09 121.25,73.09 Z M125.04,48.50 Q133.11,48.50 138.15,53.00 Q143.20,57.50 143.20,64.70 Q143.20,71.91 136.95,75.66 Q130.70,79.41 121.61,79.41 Q116.40,79.41 108.90,77.91 Q109.50,84.91 114.14,89.95 Q118.79,95.00 124.50,95.00 Q127.90,95.00 130.79,94.05 Q133.70,93.09 135.20,92.00 Q139.20,88.91 140.45,88.91 Q141.70,88.91 142.45,89.66 Q143.20,90.41 143.20,91.50 Q143.20,94.30 137.45,97.91 Q131.70,101.50 125.00,101.50 Q114.61,101.50 108.50,94.20 Q102.40,86.91 101.90,76.59 Q96.61,75.00 96.61,71.41 Q96.61,69.91 97.45,69.06 Q98.29,68.20 99.50,68.20 Q100.70,68.20 102.50,69.09 Q104.70,60.09 110.84,54.30 Q117.00,48.50 125.04,48.50 Z M175.15,73.09 Q181.90,73.09 185.94,70.80 Q190.01,68.50 190.01,64.61 Q190.01,60.70 187.35,57.86 Q184.69,55.00 179.80,55.00 Q173.19,55.00 168.69,59.95 Q164.19,64.91 162.90,71.50 Q168.40,73.09 175.15,73.09 Z M178.94,48.50 Q187.01,48.50 192.05,53.00 Q197.10,57.50 197.10,64.70 Q197.10,71.91 190.85,75.66 Q184.60,79.41 175.51,79.41 Q170.30,79.41 162.80,77.91 Q163.40,84.91 168.04,89.95 Q172.69,95.00 178.40,95.00 Q181.80,95.00 184.69,94.05 Q187.60,93.09 189.10,92.00 Q193.10,88.91 194.35,88.91 Q195.60,88.91 196.35,89.66 Q197.10,90.41 197.10,91.50 Q197.10,94.30 191.35,97.91 Q185.60,101.50 178.90,101.50 Q168.51,101.50 162.40,94.20 Q156.30,86.91 155.80,76.59 Q150.51,75.00 150.51,71.41 Q150.51,69.91 151.35,69.06 Q152.19,68.20 153.40,68.20 Q154.60,68.20 156.40,69.09 Q158.60,60.09 164.74,54.30 Q170.90,48.50 178.94,48.50 Z M216.50,62.50 L217.00,96.00 Q217.00,101.00 213.20,101.00 Q209.41,101.00 209.41,96.00 L209.91,62.50 L209.41,29.00 Q209.41,24.00 213.20,24.00 Q217.00,24.00 217.00,29.00 L216.50,62.50 Z" fill="#D4C8C2"/><circle cx="234.4" cy="28.0" r="9" fill="none" stroke="#D4C8C2" stroke-width="2"/><path d="M235.20,28.29 Q235.62,28.43 236.01,28.89 Q236.40,29.35 236.79,30.15 L238.09,32.74 L236.71,32.74 L235.50,30.31 Q235.03,29.35 234.59,29.04 Q234.15,28.73 233.39,28.73 L231.99,28.73 L231.99,32.74 L230.71,32.74 L230.71,23.26 L233.60,23.26 Q235.23,23.26 236.03,23.94 Q236.83,24.62 236.83,25.99 Q236.83,26.89 236.41,27.48 Q236.00,28.07 235.20,28.29 Z M231.99,24.32 L231.99,27.68 L233.60,27.68 Q234.53,27.68 235.00,27.25 Q235.48,26.82 235.48,25.99 Q235.48,25.16 235.00,24.74 Q234.53,24.32 233.60,24.32 L231.99,24.32 Z" fill="#D4C8C2"/></svg>